<mxfile host="app.diagrams.net" agent="Mozilla/5.0 (Windows NT 10.0; Win64; x64) AppleWebKit/537.36 (KHTML, like Gecko) Chrome/131.0.0.0 Safari/537.36" version="24.9.2">
  <diagram id="RbT6SCevQHZDdhUw1p6O" name="Page-1">
    <mxGraphModel dx="581" dy="290" grid="1" gridSize="10" guides="1" tooltips="1" connect="1" arrows="1" fold="1" page="1" pageScale="1" pageWidth="850" pageHeight="1100" math="0" shadow="0">
      <root>
        <mxCell id="0" />
        <mxCell id="1" parent="0" />
        <mxCell id="JZoax5kqEpvpaWR4Enbw-1" value="Line_buffer_2" style="rounded=0;whiteSpace=wrap;html=1;" vertex="1" parent="1">
          <mxGeometry x="240" y="330" width="120" height="40" as="geometry" />
        </mxCell>
        <mxCell id="JZoax5kqEpvpaWR4Enbw-2" value="" style="endArrow=classic;html=1;rounded=0;exitX=1;exitY=0.5;exitDx=0;exitDy=0;" edge="1" parent="1" source="JZoax5kqEpvpaWR4Enbw-1" target="JZoax5kqEpvpaWR4Enbw-3">
          <mxGeometry width="50" height="50" relative="1" as="geometry">
            <mxPoint x="380" y="400" as="sourcePoint" />
            <mxPoint x="400" y="350" as="targetPoint" />
          </mxGeometry>
        </mxCell>
        <mxCell id="JZoax5kqEpvpaWR4Enbw-3" value="Line_buffer_3" style="rounded=0;whiteSpace=wrap;html=1;" vertex="1" parent="1">
          <mxGeometry x="520" y="330" width="120" height="40" as="geometry" />
        </mxCell>
        <mxCell id="JZoax5kqEpvpaWR4Enbw-4" value="Line_buffer_4" style="rounded=0;whiteSpace=wrap;html=1;" vertex="1" parent="1">
          <mxGeometry x="830" y="330" width="120" height="40" as="geometry" />
        </mxCell>
        <mxCell id="JZoax5kqEpvpaWR4Enbw-5" value="" style="endArrow=classic;html=1;rounded=0;entryX=0;entryY=0.5;entryDx=0;entryDy=0;exitX=1;exitY=0.5;exitDx=0;exitDy=0;" edge="1" parent="1" source="JZoax5kqEpvpaWR4Enbw-3" target="JZoax5kqEpvpaWR4Enbw-4">
          <mxGeometry width="50" height="50" relative="1" as="geometry">
            <mxPoint x="420" y="450" as="sourcePoint" />
            <mxPoint x="470" y="400" as="targetPoint" />
          </mxGeometry>
        </mxCell>
        <mxCell id="JZoax5kqEpvpaWR4Enbw-12" value="" style="endArrow=classic;html=1;rounded=0;" edge="1" parent="1">
          <mxGeometry width="50" height="50" relative="1" as="geometry">
            <mxPoint x="470" y="350" as="sourcePoint" />
            <mxPoint x="530" y="450" as="targetPoint" />
            <Array as="points">
              <mxPoint x="470" y="450" />
            </Array>
          </mxGeometry>
        </mxCell>
        <mxCell id="JZoax5kqEpvpaWR4Enbw-13" value="d8" style="rounded=0;whiteSpace=wrap;html=1;" vertex="1" parent="1">
          <mxGeometry x="530" y="430" width="40" height="40" as="geometry" />
        </mxCell>
        <mxCell id="JZoax5kqEpvpaWR4Enbw-14" value="" style="endArrow=classic;html=1;rounded=0;exitX=1;exitY=0.5;exitDx=0;exitDy=0;" edge="1" parent="1" source="JZoax5kqEpvpaWR4Enbw-13">
          <mxGeometry width="50" height="50" relative="1" as="geometry">
            <mxPoint x="590" y="450" as="sourcePoint" />
            <mxPoint x="610" y="450" as="targetPoint" />
          </mxGeometry>
        </mxCell>
        <mxCell id="JZoax5kqEpvpaWR4Enbw-15" value="d7" style="rounded=0;whiteSpace=wrap;html=1;" vertex="1" parent="1">
          <mxGeometry x="610" y="430" width="40" height="40" as="geometry" />
        </mxCell>
        <mxCell id="JZoax5kqEpvpaWR4Enbw-16" value="d6" style="rounded=0;whiteSpace=wrap;html=1;" vertex="1" parent="1">
          <mxGeometry x="690" y="430" width="40" height="40" as="geometry" />
        </mxCell>
        <mxCell id="JZoax5kqEpvpaWR4Enbw-17" value="" style="endArrow=classic;html=1;rounded=0;exitX=1;exitY=0.5;exitDx=0;exitDy=0;entryX=0;entryY=0.5;entryDx=0;entryDy=0;" edge="1" parent="1" source="JZoax5kqEpvpaWR4Enbw-15" target="JZoax5kqEpvpaWR4Enbw-16">
          <mxGeometry width="50" height="50" relative="1" as="geometry">
            <mxPoint x="680" y="430" as="sourcePoint" />
            <mxPoint x="730" y="380" as="targetPoint" />
          </mxGeometry>
        </mxCell>
        <mxCell id="JZoax5kqEpvpaWR4Enbw-18" value="" style="endArrow=classic;html=1;rounded=0;" edge="1" parent="1">
          <mxGeometry width="50" height="50" relative="1" as="geometry">
            <mxPoint x="750" y="350" as="sourcePoint" />
            <mxPoint x="810" y="450" as="targetPoint" />
            <Array as="points">
              <mxPoint x="750" y="450" />
            </Array>
          </mxGeometry>
        </mxCell>
        <mxCell id="JZoax5kqEpvpaWR4Enbw-19" value="d5" style="rounded=0;whiteSpace=wrap;html=1;" vertex="1" parent="1">
          <mxGeometry x="810" y="430" width="40" height="40" as="geometry" />
        </mxCell>
        <mxCell id="JZoax5kqEpvpaWR4Enbw-20" value="" style="endArrow=classic;html=1;rounded=0;exitX=1;exitY=0.5;exitDx=0;exitDy=0;" edge="1" parent="1" source="JZoax5kqEpvpaWR4Enbw-19">
          <mxGeometry width="50" height="50" relative="1" as="geometry">
            <mxPoint x="870" y="450" as="sourcePoint" />
            <mxPoint x="890" y="450" as="targetPoint" />
          </mxGeometry>
        </mxCell>
        <mxCell id="JZoax5kqEpvpaWR4Enbw-21" value="d4" style="rounded=0;whiteSpace=wrap;html=1;" vertex="1" parent="1">
          <mxGeometry x="890" y="430" width="40" height="40" as="geometry" />
        </mxCell>
        <mxCell id="JZoax5kqEpvpaWR4Enbw-22" value="d3" style="rounded=0;whiteSpace=wrap;html=1;" vertex="1" parent="1">
          <mxGeometry x="970" y="430" width="40" height="40" as="geometry" />
        </mxCell>
        <mxCell id="JZoax5kqEpvpaWR4Enbw-23" value="" style="endArrow=classic;html=1;rounded=0;exitX=1;exitY=0.5;exitDx=0;exitDy=0;entryX=0;entryY=0.5;entryDx=0;entryDy=0;" edge="1" parent="1" source="JZoax5kqEpvpaWR4Enbw-21" target="JZoax5kqEpvpaWR4Enbw-22">
          <mxGeometry width="50" height="50" relative="1" as="geometry">
            <mxPoint x="960" y="430" as="sourcePoint" />
            <mxPoint x="1010" y="380" as="targetPoint" />
          </mxGeometry>
        </mxCell>
        <mxCell id="JZoax5kqEpvpaWR4Enbw-24" value="d2" style="rounded=0;whiteSpace=wrap;html=1;" vertex="1" parent="1">
          <mxGeometry x="1020" y="330" width="40" height="40" as="geometry" />
        </mxCell>
        <mxCell id="JZoax5kqEpvpaWR4Enbw-25" value="" style="endArrow=classic;html=1;rounded=0;exitX=1;exitY=0.5;exitDx=0;exitDy=0;" edge="1" parent="1" source="JZoax5kqEpvpaWR4Enbw-24">
          <mxGeometry width="50" height="50" relative="1" as="geometry">
            <mxPoint x="1080" y="350" as="sourcePoint" />
            <mxPoint x="1100" y="350" as="targetPoint" />
          </mxGeometry>
        </mxCell>
        <mxCell id="JZoax5kqEpvpaWR4Enbw-26" value="d1" style="rounded=0;whiteSpace=wrap;html=1;" vertex="1" parent="1">
          <mxGeometry x="1100" y="330" width="40" height="40" as="geometry" />
        </mxCell>
        <mxCell id="JZoax5kqEpvpaWR4Enbw-27" value="d0" style="rounded=0;whiteSpace=wrap;html=1;" vertex="1" parent="1">
          <mxGeometry x="1180" y="330" width="40" height="40" as="geometry" />
        </mxCell>
        <mxCell id="JZoax5kqEpvpaWR4Enbw-28" value="" style="endArrow=classic;html=1;rounded=0;exitX=1;exitY=0.5;exitDx=0;exitDy=0;entryX=0;entryY=0.5;entryDx=0;entryDy=0;" edge="1" parent="1" source="JZoax5kqEpvpaWR4Enbw-26" target="JZoax5kqEpvpaWR4Enbw-27">
          <mxGeometry width="50" height="50" relative="1" as="geometry">
            <mxPoint x="1170" y="330" as="sourcePoint" />
            <mxPoint x="1220" y="280" as="targetPoint" />
          </mxGeometry>
        </mxCell>
        <mxCell id="JZoax5kqEpvpaWR4Enbw-29" value="" style="endArrow=classic;html=1;rounded=0;entryX=0;entryY=0.5;entryDx=0;entryDy=0;exitX=1.019;exitY=0.503;exitDx=0;exitDy=0;exitPerimeter=0;" edge="1" parent="1" source="JZoax5kqEpvpaWR4Enbw-4" target="JZoax5kqEpvpaWR4Enbw-24">
          <mxGeometry width="50" height="50" relative="1" as="geometry">
            <mxPoint x="1020" y="369" as="sourcePoint" />
            <mxPoint x="1210" y="369" as="targetPoint" />
          </mxGeometry>
        </mxCell>
      </root>
    </mxGraphModel>
  </diagram>
</mxfile>
